<svg width="76" height="76" viewBox="0 0 76 76" fill="none" xmlns="http://www.w3.org/2000/svg">
<path d="M38.0002 63.8402C23.7122 63.8402 12.1602 52.2882 12.1602 38.0002C12.1602 23.7122 23.7122 12.1602 38.0002 12.1602C52.2882 12.1602 63.8402 23.7122 63.8402 38.0002C63.8402 52.2882 52.2882 63.8402 38.0002 63.8402ZM38.0002 15.2002C25.3842 15.2002 15.2002 25.3842 15.2002 38.0002C15.2002 50.6162 25.3842 60.8002 38.0002 60.8002C50.6162 60.8002 60.8002 50.6162 60.8002 38.0002C60.8002 25.3842 50.6162 15.2002 38.0002 15.2002Z" fill="#728FCE"/>
<path d="M38.4559 52.7439L23.7119 37.9999L38.4559 23.2559L40.5839 25.3839L27.9679 37.9999L40.5839 50.6159L38.4559 52.7439Z" fill="#728FCE"/>
<path d="M25.8398 36.4805H51.6798V39.5205H25.8398V36.4805Z" fill="#728FCE"/>
</svg>
