<svg aria-hidden="true" style="position:absolute;width:0;height:0;overflow:hidden" xmlns="http://www.w3.org/2000/svg">
  <defs>
<symbol id="icon-arrow" viewBox="0 0 32 32">
<path fill="#728fce" style="fill: var(--color1, #728fce)" d="M16 26.88c-6.016 0-10.88-4.864-10.88-10.88s4.864-10.88 10.88-10.88c6.016 0 10.88 4.864 10.88 10.88s-4.864 10.88-10.88 10.88zM16 6.4c-5.312 0-9.6 4.288-9.6 9.6s4.288 9.6 9.6 9.6c5.312 0 9.6-4.288 9.6-9.6s-4.288-9.6-9.6-9.6z"></path>
<path fill="#728fce" style="fill: var(--color1, #728fce)" d="M16.192 22.208l-6.208-6.208 6.208-6.208 0.896 0.896-5.312 5.312 5.312 5.312-0.896 0.896z"></path>
<path fill="#728fce" style="fill: var(--color1, #728fce)" d="M10.88 15.36h10.88v1.28h-10.88v-1.28z"></path>
</symbol>
<symbol id="icon-benefit1" viewBox="0 0 32 32">
<path d="M21.583 22.648l-0.669-2.008c-0.234-0.701-0.83-1.218-1.558-1.351l-1.932-0.351v-0.15c0.336-0.195 0.629-0.456 0.862-0.765h0.584c0.478 0 0.867-0.389 0.867-0.867v-3.468c0-2.072-1.686-3.757-3.757-3.757s-3.757 1.686-3.757 3.757v2.023c0 0.557 0.396 1.023 0.922 1.132 0.162 0.831 0.681 1.534 1.391 1.945v0.15l-1.932 0.351c-0.727 0.132-1.324 0.65-1.557 1.351l-0.116 0.347-0.984-0.984c-0.113-0.113-0.113-0.296 0-0.409l1.142-1.141-2.143-2.143-1.29 1.29c-0.382 0.382-0.593 0.89-0.593 1.431s0.21 1.048 0.593 1.43l3.906 3.906c0.382 0.382 0.89 0.593 1.431 0.593s1.048-0.211 1.421-0.584l1.408-1.29-0.439-0.438h6.202zM19.159 17.156c0 0.16-0.13 0.289-0.289 0.289h-0.243c0.084-0.191 0.147-0.392 0.188-0.602 0.124-0.026 0.238-0.075 0.344-0.137v0.45zM18.87 16.209v-0.995c0.172 0.1 0.289 0.285 0.289 0.498s-0.117 0.397-0.289 0.498zM13.089 16.209c-0.172-0.1-0.289-0.285-0.289-0.498s0.117-0.397 0.289-0.498v0.995zM13.089 14.266v0.33c-0.103 0.027-0.199 0.067-0.289 0.12v-1.028c0-1.753 1.426-3.179 3.179-3.179s3.179 1.426 3.179 3.179v1.028c-0.090-0.052-0.186-0.093-0.289-0.12v-0.33h-0.289c-0.855 0-1.658-0.333-2.263-0.937l-0.338-0.338-0.338 0.338c-0.605 0.604-1.408 0.937-2.263 0.937h-0.289zM13.667 16.289v-1.456c0.868-0.065 1.677-0.423 2.312-1.027 0.635 0.604 1.444 0.962 2.312 1.027v1.456c0 0.421-0.115 0.816-0.313 1.156h-2v0.578h1.524c-0.408 0.359-0.94 0.578-1.524 0.578-1.275 0-2.312-1.037-2.312-2.312zM16.846 19.046v0.014l-0.867 0.867-0.867-0.867v-0.014c0.274 0.086 0.565 0.133 0.867 0.133s0.593-0.047 0.867-0.133zM11.593 20.823c0.167-0.501 0.593-0.87 1.112-0.965l2.020-0.367 1.254 1.254 1.253-1.253 2.020 0.367c0.519 0.095 0.946 0.464 1.112 0.965l0.416 1.247h-5.978l-1.126-1.126-1.251 1.132c-0.109 0.11-0.299 0.11-0.409 0l-0.631-0.631 0.207-0.621zM8.943 17.127l1.325 1.325-0.314 0.314-1.325-1.326 0.314-0.314zM14.012 23.959c-0.273 0.272-0.636 0.423-1.022 0.423s-0.749-0.151-1.022-0.423l-3.906-3.906c-0.273-0.273-0.423-0.636-0.423-1.022s0.15-0.749 0.423-1.022l0.159-0.159 1.325 1.326-0.010 0.010c-0.338 0.338-0.338 0.888 0 1.226l2.073 2.073c0.164 0.164 0.382 0.254 0.613 0.254s0.449-0.090 0.603-0.244l0.022-0.019 1.332 1.332-0.166 0.152zM14.604 23.416l-1.329-1.329 0.382-0.345 1.326 1.326-0.38 0.347z"></path>
<path d="M24.072 7.040h-4.046c-0.478 0-0.867 0.389-0.867 0.867v2.312c0 0.478 0.389 0.867 0.867 0.867h0.772l-0.299 1.743 2.789-1.743h0.784c0.478 0 0.867-0.389 0.867-0.867v-2.312c0-0.478-0.389-0.867-0.867-0.867zM24.361 10.219c0 0.159-0.13 0.289-0.289 0.289h-0.95l-1.836 1.147 0.197-1.147h-1.458c-0.159 0-0.289-0.13-0.289-0.289v-2.312c0-0.159 0.13-0.289 0.289-0.289h4.046c0.159 0 0.289 0.13 0.289 0.289v2.312z"></path>
<path d="M23.783 8.196h-3.468v0.578h3.468v-0.578z"></path>
<path d="M22.627 9.352h-2.312v0.578h2.312v-0.578z"></path>
<path d="M23.783 9.352h-0.578v0.578h0.578v-0.578z"></path>
<path d="M15.979 7.907c-3.777 0-7.030 2.612-7.875 6.256l-0.548-0.913-0.496 0.297 1.016 1.693 1.693-1.016-0.297-0.496-0.783 0.47c0.819-3.333 3.817-5.714 7.291-5.714 0.759 0 1.508 0.113 2.227 0.335l0.171-0.552c-0.774-0.24-1.58-0.361-2.398-0.361z"></path>
<path d="M24.799 13.44l-1.693-1.016-1.016 1.693 0.496 0.297 0.506-0.843c0.266 0.779 0.402 1.594 0.402 2.429 0 1.719-0.595 3.399-1.676 4.731l0.449 0.364c1.164-1.435 1.805-3.245 1.805-5.096 0-0.884-0.142-1.748-0.42-2.574l0.849 0.51 0.297-0.496z"></path>
</symbol>
<symbol id="icon-benefit2" viewBox="0 0 32 32">
<path d="M23.595 8.235h-14.933c-0.824 0.001-1.492 0.669-1.493 1.493v10.155c0.001 0.824 0.669 1.492 1.493 1.493h5.973v-0.597h-5.973c-0.495 0-0.896-0.401-0.896-0.896v-10.155c0-0.495 0.401-0.896 0.896-0.896h14.933c0.495 0 0.896 0.401 0.896 0.896v10.155c0 0.495-0.401 0.896-0.896 0.896h-0.299v0.597h0.299c0.824-0.001 1.492-0.669 1.493-1.493v-10.155c-0.001-0.824-0.669-1.492-1.493-1.493z"></path>
<path d="M23.595 19.286v-9.557c0-0.165-0.134-0.299-0.299-0.299h-14.336c-0.165 0-0.299 0.134-0.299 0.299v10.155c0 0.165 0.134 0.299 0.299 0.299h7.765v-0.597h-7.467v-9.557h13.739v9.259h0.597z"></path>
<path d="M9.856 10.624h0.597v0.597h-0.597v-0.597z"></path>
<path d="M9.856 11.819h1.195v0.597h-1.195v-0.597z"></path>
<path d="M9.856 13.013h1.195v0.597h-1.195v-0.597z"></path>
<path d="M9.856 14.208h1.195v0.597h-1.195v-0.597z"></path>
<path d="M9.856 15.403h1.195v0.597h-1.195v-0.597z"></path>
<path d="M9.856 16.597h1.195v0.597h-1.195v-0.597z"></path>
<path d="M9.856 17.792h1.195v0.597h-1.195v-0.597z"></path>
<path d="M22.4 15.403h-8.96v-0.772l0.551-0.551 0.395 0.593c0.049 0.075 0.13 0.124 0.219 0.133h0.030c0.079 0 0.155-0.031 0.211-0.088l1.282-1.282 0.685 0.685c0.059 0.060 0.141 0.092 0.225 0.087s0.162-0.043 0.216-0.107l1.264-1.517 1.264 1.517c0.054 0.064 0.132 0.103 0.216 0.107 0.084 0.005 0.166-0.027 0.225-0.087l0.685-0.685 0.386 0.386c0.061 0.062 0.146 0.094 0.232 0.087 0.087-0.006 0.166-0.050 0.218-0.119l0.896-1.195-0.478-0.358-0.689 0.919-0.354-0.354c-0.117-0.117-0.306-0.117-0.422 0l-0.665 0.665-1.284-1.541c-0.059-0.065-0.142-0.102-0.23-0.102s-0.171 0.037-0.23 0.102l-1.284 1.541-0.665-0.665c-0.117-0.117-0.306-0.117-0.422 0l-1.236 1.236-0.395-0.593c-0.050-0.074-0.13-0.123-0.219-0.131s-0.177 0.023-0.24 0.086l-0.385 0.387v-1.967h-0.597v3.883c0 0.165 0.134 0.299 0.299 0.299h9.259v-0.597z"></path>
<path d="M12.843 10.624h1.792v0.597h-1.792v-0.597z"></path>
<path d="M15.232 10.624h0.597v0.597h-0.597v-0.597z"></path>
<path d="M12.843 16.597h1.195v0.597h-1.195v-0.597z"></path>
<path d="M14.635 16.597h0.597v0.597h-0.597v-0.597z"></path>
<path d="M12.843 17.792h1.195v0.597h-1.195v-0.597z"></path>
<path d="M14.635 17.792h0.597v0.597h-0.597v-0.597z"></path>
<path d="M16.427 16.597h0.597v0.597h-0.597v-0.597z"></path>
<path d="M20.011 16.597h1.195v0.597h-1.195v-0.597z"></path>
<path d="M21.803 16.597h0.597v0.597h-0.597v-0.597z"></path>
<path d="M20.011 17.792h1.195v0.597h-1.195v-0.597z"></path>
<path d="M21.803 17.792h0.597v0.597h-0.597v-0.597z"></path>
<path d="M21.952 19.297c-0.261-0.043-0.527 0.030-0.728 0.201-0.006 0.005-0.012 0.010-0.018 0.015-0.34-0.305-0.855-0.305-1.195 0-0.247-0.212-0.587-0.279-0.896-0.178v-1.512c0.006-0.446-0.309-0.832-0.747-0.916-0.26-0.044-0.527 0.029-0.728 0.199s-0.318 0.421-0.318 0.685v3.654l-0.793-0.475c-0.242-0.146-0.542-0.157-0.794-0.030l-0.047 0.023c-0.259 0.13-0.431 0.386-0.454 0.674s0.108 0.568 0.343 0.737l1.87 1.335c0.051 0.036 0.111 0.055 0.174 0.055h4.779c0.165 0 0.299-0.134 0.299-0.299v-3.253c0.006-0.446-0.309-0.832-0.747-0.916zM22.101 23.168h-4.384l-1.792-1.28c-0.065-0.046-0.102-0.124-0.096-0.204s0.054-0.151 0.125-0.187l0.047-0.023c0.070-0.035 0.153-0.032 0.22 0.008l1.245 0.747c0.092 0.056 0.208 0.058 0.302 0.005s0.152-0.153 0.152-0.261v-4.181c0-0.088 0.038-0.171 0.105-0.228s0.158-0.082 0.245-0.066c0.149 0.036 0.252 0.173 0.246 0.326v2.357c0 0.165 0.134 0.299 0.299 0.299s0.299-0.134 0.299-0.299c0-0.165 0.134-0.299 0.299-0.299s0.299 0.134 0.299 0.299 0.134 0.299 0.299 0.299 0.299-0.134 0.299-0.299 0.134-0.299 0.299-0.299 0.299 0.134 0.299 0.299 0.134 0.299 0.299 0.299 0.299-0.134 0.299-0.299c0-0.088 0.039-0.172 0.107-0.229s0.157-0.081 0.244-0.065c0.149 0.036 0.252 0.173 0.246 0.326v2.955z"></path>
<path d="M11.648 10.624h0.597v8.363h-0.597v-8.363z"></path>
</symbol>
<symbol id="icon-benefit3" viewBox="0 0 32 32">
<path d="M11.941 23.483c0.722 0 1.309-0.555 1.309-1.236v-9.069c0-0.681-0.587-1.236-1.309-1.236h-2.376c-0.722 0-1.309 0.553-1.309 1.236v9.071c0 0.681 0.588 1.236 1.309 1.236l2.376-0.002zM8.908 22.248v-9.069c0-0.319 0.295-0.578 0.655-0.578h2.376c0.363 0 0.655 0.259 0.655 0.578v9.071c0 0.319-0.295 0.578-0.655 0.578h-2.374c-0.363-0.002-0.657-0.261-0.657-0.58z"></path>
<path d="M20.604 7.36c-0.722 0-1.309 0.725-1.309 1.617v12.889c0 0.893 0.587 1.617 1.309 1.617h2.376c0.722 0 1.309-0.725 1.309-1.617v-12.889c0-0.893-0.586-1.617-1.309-1.617h-2.376zM23.638 8.977v12.889c0 0.519-0.3 0.959-0.657 0.959h-2.376c-0.355 0-0.655-0.439-0.655-0.959v-12.889c0-0.519 0.3-0.959 0.655-0.959h2.376c0.357 0 0.657 0.441 0.657 0.959z"></path>
<path d="M15.007 23.483h2.376c0.735 0 1.309-0.408 1.309-0.929v-5.994c0-0.521-0.574-0.929-1.309-0.929h-2.376c-0.735 0-1.309 0.408-1.309 0.929v5.994c0 0.523 0.574 0.929 1.309 0.929zM14.35 16.56c0-0.082 0.247-0.269 0.655-0.269h2.376c0.408 0 0.655 0.187 0.655 0.269v5.994c0 0.082-0.247 0.269-0.655 0.269h-2.374c-0.408 0-0.655-0.187-0.655-0.269v-5.994h-0.002z"></path>
<path d="M8.828 24.677c0 0.334 0.293 0.605 0.655 0.605h13.825c0.363 0 0.655-0.271 0.655-0.605s-0.293-0.603-0.655-0.603h-13.827c-0.361-0.002-0.654 0.269-0.654 0.603z"></path>
</symbol>
<symbol id="icon-benefit4" viewBox="0 0 32 32">
<path d="M21.944 12.692v-0.612h-0.56v0.56h-0.56v0.84c0 0.463 0.377 0.84 0.84 0.84 0.155 0 0.28 0.126 0.28 0.28v0.28h-0.28c-0.155 0-0.28-0.126-0.28-0.28v-0.28h-0.56v0.28c0 0.365 0.235 0.673 0.56 0.788v0.612h0.56v-0.56h0.56v-0.84c0-0.463-0.377-0.84-0.84-0.84-0.155 0-0.28-0.126-0.28-0.28v-0.28h0.28c0.155 0 0.28 0.126 0.28 0.28v0.28h0.56v-0.28c0-0.365-0.235-0.673-0.56-0.788z"></path>
<path d="M24.744 14.040c0-1.698-1.382-3.080-3.080-3.080s-3.080 1.382-3.080 3.080c0 0.608 0.176 1.187 0.501 1.683-0.728 0.010-1.414 0.193-2.020 0.512-0.225-0.389-0.531-0.724-0.906-0.974-0.361-0.241-0.78-0.401-1.211-0.463l-1.179-0.169-0.163-0.651c0.48-0.3 0.838-0.776 0.983-1.338h0.074c0.618 0 1.12-0.502 1.12-1.12 0-0.265-0.096-0.506-0.251-0.697l0.202-0.752c0.033-0.13 0.049-0.264 0.049-0.398 0-0.687-0.434-1.306-1.079-1.541l-1.842-0.67c-0.259-0.094-0.529-0.142-0.804-0.142-0.736 0-1.439 0.351-1.88 0.94l-0.142 0.189c-0.548 0.072-0.972 0.543-0.972 1.111 0 0.451 0.158 1.004 0.244 1.271-0.15 0.191-0.244 0.428-0.244 0.689 0 0.618 0.502 1.12 1.12 1.12h0.074c0.145 0.562 0.503 1.038 0.983 1.338l-0.163 0.651-1.179 0.169c-0.431 0.062-0.849 0.222-1.211 0.463-0.817 0.544-1.304 1.456-1.304 2.437v5.022h8.059c0.808 1.182 2.165 1.96 3.701 1.96 2.47 0 4.48-2.010 4.48-4.48 0-1.229-0.498-2.342-1.301-3.153 1.382-0.303 2.421-1.535 2.421-3.007zM18.064 22.16c-0.163-0.476-0.282-1.036-0.309-1.68h2.78c-0.028 0.643-0.147 1.203-0.311 1.68h-2.159zM19.996 22.72c-0.299 0.636-0.647 1.067-0.853 1.287-0.207-0.221-0.555-0.65-0.854-1.287h1.707zM18.292 17.68c0.299-0.636 0.646-1.066 0.853-1.287 0.207 0.22 0.555 0.65 0.854 1.287h-1.707zM20.224 18.24c0.163 0.476 0.282 1.036 0.309 1.68h-2.78c0.028-0.643 0.147-1.203 0.312-1.68h2.159zM17.674 17.68h-1.528c0.577-0.685 1.384-1.168 2.301-1.334-0.245 0.313-0.532 0.757-0.773 1.334zM15.754 18.24h1.716c-0.149 0.486-0.252 1.047-0.276 1.68h-1.956c0.043-0.609 0.225-1.179 0.516-1.68zM17.194 20.48c0.025 0.633 0.127 1.194 0.276 1.68h-1.716c-0.291-0.501-0.473-1.071-0.516-1.68h1.956zM21.094 20.48h1.956c-0.043 0.609-0.225 1.179-0.516 1.68h-1.716c0.149-0.486 0.252-1.047 0.277-1.68zM21.094 19.92c-0.025-0.633-0.127-1.194-0.276-1.68h1.716c0.291 0.501 0.473 1.071 0.516 1.68h-1.956zM20.614 17.68c-0.241-0.577-0.528-1.021-0.773-1.334 0.917 0.166 1.724 0.649 2.301 1.334h-1.528zM12.424 16.313l0.361 0.181-0.231 0.346h-0.26l-0.231-0.346 0.361-0.181zM11.558 16.746l0.277 0.416-0.284 0.852c-0.184-0.331-0.337-0.676-0.459-1.034l0.466-0.233zM12.346 17.4h0.156l0.409 1.225c-0.151 0.211-0.31 0.416-0.487 0.61-0.177-0.193-0.336-0.399-0.487-0.61l0.409-1.225zM13.297 18.013l-0.284-0.852 0.277-0.416 0.466 0.233c-0.122 0.358-0.276 0.704-0.459 1.035zM14.089 15.241c-0.021 0.406-0.079 0.804-0.174 1.192l-1.019-0.509 0.746-0.746 0.446 0.064zM14.664 12.080v-1.12c0.309 0 0.56 0.251 0.56 0.56s-0.251 0.56-0.56 0.56zM9.624 11.52c0-0.309 0.251-0.56 0.56-0.56h0.010c-0.004 0.056-0.010 0.112-0.010 0.169v0.951c-0.309 0-0.56-0.251-0.56-0.56zM10.313 10.4h-0.129c-0.141 0-0.274 0.029-0.398 0.077-0.074-0.258-0.162-0.623-0.162-0.917 0-0.309 0.251-0.56 0.56-0.56h0.14l0.303-0.404c0.336-0.449 0.872-0.716 1.432-0.716 0.209 0 0.415 0.036 0.612 0.108l1.842 0.67c0.425 0.155 0.711 0.563 0.711 1.015 0 0.088-0.011 0.176-0.031 0.257l-0.145 0.542c-0.12-0.044-0.248-0.072-0.384-0.072h-0.28c-1.297 0-2.909-1.062-2.925-1.073l-0.156-0.103-0.155 0.104c-0.393 0.262-0.681 0.641-0.836 1.073zM10.744 12.080v-0.951c0-0.479 0.211-0.927 0.573-1.23 0.438 0.267 1.645 0.946 2.787 1.047v1.133c0 0.927-0.753 1.68-1.68 1.68s-1.68-0.753-1.68-1.68zM12.424 14.32c0.232 0 0.456-0.036 0.666-0.101l0.144 0.575-0.81 0.81-0.81-0.81 0.144-0.575c0.21 0.066 0.434 0.101 0.666 0.101zM11.205 15.177l0.746 0.746-1.019 0.509c-0.094-0.388-0.153-0.786-0.174-1.192l0.446-0.064zM9.624 22.16v-4.2h-0.56v4.2h-1.12v-4.462c0-0.794 0.395-1.531 1.055-1.972 0.292-0.195 0.631-0.325 0.979-0.374l0.218-0.031c0.1 1.707 0.813 3.301 2.029 4.517l0.198 0.198 0.198-0.198c1.216-1.216 1.929-2.81 2.029-4.517l0.218 0.031c0.348 0.050 0.687 0.179 0.979 0.374 0.307 0.205 0.557 0.48 0.739 0.799-1.161 0.81-1.924 2.154-1.924 3.674 0 0.703 0.167 1.367 0.458 1.96h-5.498zM16.146 22.72h1.528c0.241 0.577 0.528 1.021 0.773 1.334-0.917-0.166-1.724-0.649-2.301-1.334zM19.842 24.054c0.245-0.313 0.532-0.757 0.773-1.334h1.528c-0.577 0.685-1.384 1.168-2.301 1.334zM21.741 16.556c-0.552-0.395-1.197-0.665-1.895-0.776-0.451-0.471-0.701-1.085-0.701-1.74 0-1.389 1.13-2.52 2.52-2.52s2.52 1.131 2.52 2.52c0 1.364-1.089 2.475-2.444 2.516z"></path>
</symbol>
<symbol id="icon-benefit5" viewBox="0 0 32 32">
<path d="M16.192 15.104c-0.044 0-0.087-0.010-0.127-0.028l-5.077-2.389c-0.104-0.049-0.171-0.155-0.171-0.27s0.067-0.221 0.171-0.27l5.077-2.389c0.081-0.038 0.174-0.038 0.254 0l5.077 2.389c0.105 0.049 0.171 0.155 0.171 0.27s-0.067 0.221-0.171 0.27l-5.077 2.389c-0.040 0.019-0.084 0.028-0.127 0.028zM11.816 12.416l4.376 2.059 4.376-2.059-4.376-2.059-4.376 2.059z"></path>
<path d="M16.192 17.493c-0.046 0-0.092-0.010-0.134-0.031l-3.584-1.792c-0.101-0.051-0.165-0.154-0.165-0.267v-2.284c0-0.102 0.052-0.197 0.139-0.252s0.195-0.061 0.287-0.018l3.457 1.627 3.457-1.627c0.093-0.043 0.201-0.037 0.287 0.018s0.139 0.15 0.139 0.252v2.284c0 0.113-0.064 0.217-0.165 0.267l-3.584 1.792c-0.042 0.021-0.088 0.031-0.134 0.031zM12.907 15.218l3.285 1.643 3.285-1.643v-1.629l-3.158 1.486c-0.081 0.038-0.174 0.038-0.254 0l-3.158-1.486v1.629z"></path>
<path d="M21.269 12.715h-5.077c-0.165 0-0.299-0.134-0.299-0.299s0.134-0.299 0.299-0.299h5.077c0.165 0 0.299 0.134 0.299 0.299s-0.134 0.299-0.299 0.299z"></path>
<path d="M21.269 15.403c-0.165 0-0.299-0.134-0.299-0.299v-2.688c0-0.165 0.134-0.299 0.299-0.299s0.299 0.134 0.299 0.299v2.688c0 0.165-0.134 0.299-0.299 0.299z"></path>
<path d="M16.192 13.312c-0.165 0-0.299-0.134-0.299-0.299v-1.195c0-0.165 0.134-0.299 0.299-0.299s0.299 0.134 0.299 0.299v1.195c0 0.165-0.134 0.299-0.299 0.299z"></path>
<path d="M20.671 16.298c-0.057 0-0.114-0.016-0.165-0.050-0.137-0.091-0.174-0.277-0.083-0.414l0.597-0.896c0.091-0.137 0.277-0.175 0.414-0.083s0.174 0.277 0.083 0.414l-0.597 0.896c-0.058 0.086-0.152 0.133-0.249 0.133z"></path>
<path d="M21.867 16.298c-0.096 0-0.191-0.047-0.249-0.133l-0.597-0.896c-0.091-0.137-0.054-0.323 0.083-0.414s0.323-0.055 0.414 0.083l0.597 0.896c0.091 0.137 0.054 0.323-0.083 0.414-0.051 0.034-0.109 0.050-0.165 0.050z"></path>
<path d="M16.192 16c-0.165 0-0.299-0.134-0.299-0.299v-0.896c0-0.165 0.134-0.299 0.299-0.299s0.299 0.134 0.299 0.299v0.896c0 0.165-0.134 0.299-0.299 0.299z"></path>
<path d="M24.853 18.688h-17.323c-0.165 0-0.299-0.134-0.299-0.299v-9.856c0-0.659 0.536-1.195 1.195-1.195h15.53c0.659 0 1.195 0.536 1.195 1.195v9.856c0 0.165-0.134 0.299-0.299 0.299zM7.829 18.090h16.725v-9.557c0-0.33-0.268-0.598-0.598-0.598h-15.53c-0.33 0-0.598 0.268-0.598 0.598v9.557z"></path>
<path d="M23.957 21.077h-15.53c-0.659 0-1.195-0.536-1.195-1.195v-1.493c0-0.165 0.134-0.299 0.299-0.299h17.323c0.165 0 0.299 0.134 0.299 0.299v1.493c0 0.659-0.536 1.195-1.195 1.195zM7.829 18.688v1.194c0 0.33 0.268 0.598 0.598 0.598h15.53c0.33 0 0.598-0.268 0.598-0.598v-1.194h-16.725z"></path>
<path d="M17.088 19.883h-1.792c-0.165 0-0.299-0.134-0.299-0.299s0.134-0.299 0.299-0.299h1.792c0.165 0 0.299 0.134 0.299 0.299s-0.134 0.299-0.299 0.299z"></path>
<path d="M23.659 18.688h-14.933c-0.165 0-0.299-0.134-0.299-0.299v-9.557c0-0.165 0.134-0.299 0.299-0.299h14.933c0.165 0 0.299 0.134 0.299 0.299v9.557c0 0.165-0.134 0.299-0.299 0.299zM9.024 18.091h14.336v-8.96h-14.336v8.96z"></path>
<path d="M20.074 24.662h-7.765c-0.494 0-0.896-0.402-0.896-0.896s0.402-0.896 0.896-0.896h7.765c0.494 0 0.896 0.402 0.896 0.896s-0.402 0.896-0.896 0.896zM12.309 23.467c-0.165 0-0.299 0.134-0.299 0.299s0.134 0.299 0.299 0.299h7.765c0.165 0 0.299-0.134 0.299-0.299s-0.134-0.299-0.299-0.299h-7.765z"></path>
<path d="M19.477 23.467h-6.571c-0.165 0-0.299-0.134-0.299-0.299s0.134-0.299 0.299-0.299c0.991 0 1.493-0.703 1.493-2.091 0-0.165 0.134-0.299 0.299-0.299h2.987c0.165 0 0.299 0.134 0.299 0.299 0 1.387 0.502 2.091 1.493 2.091 0.165 0 0.299 0.134 0.299 0.299s-0.134 0.299-0.299 0.299zM14.361 22.869h3.661c-0.368-0.407-0.584-1.014-0.628-1.792h-2.406c-0.044 0.778-0.26 1.385-0.628 1.792z"></path>
</symbol>
<symbol id="icon-benefit6" viewBox="0 0 32 32">
<path d="M13.104 14.674c-2.815 0-5.104 2.307-5.104 5.143s2.29 5.143 5.104 5.143c2.226 0 4.122-1.443 4.817-3.448 0.345 0.014 0.661 0.019 0.917 0.019 1.567 0 5.213-0.167 5.213-1.716 0-0.004 0-0.010 0-0.015s0-0.008 0-0.012v-2.065c0.010-0.045 0.014-0.093 0.014-0.143 0-0.045-0.006-0.091-0.014-0.134v-1.699c0.010-0.045 0.014-0.093 0.014-0.143 0-0.045-0.006-0.091-0.014-0.134v-1.891c0.010-0.045 0.014-0.093 0.014-0.143 0-0.081-0.016-0.157-0.043-0.229 0.016-0.068 0.027-0.139 0.027-0.213 0-0.004 0-0.008 0-0.014 0-0.004 0-0.008 0-0.012v-2.065c0.010-0.045 0.014-0.093 0.014-0.143 0-0.045-0.006-0.091-0.014-0.132v-1.889c0.010-0.045 0.014-0.093 0.014-0.143 0-0.085-0.016-0.163-0.045-0.238-0.045-0.159-0.144-0.291-0.275-0.374-1.063-0.912-4.454-0.943-4.905-0.943-0.449 0-3.843 0.031-4.907 0.941-0.131 0.083-0.23 0.215-0.275 0.374-0.029 0.076-0.045 0.155-0.045 0.24 0 0.050 0.006 0.095 0.014 0.143v1.891c-0.008 0.043-0.014 0.087-0.014 0.134 0 0.050 0.006 0.095 0.014 0.143v2.065c0 0.004 0 0.008 0 0.014 0 0.004 0 0.008 0 0.012 0 0.074 0.010 0.145 0.027 0.213-0.027 0.072-0.041 0.149-0.041 0.229 0 0.050 0.006 0.095 0.014 0.143v1.12c-0.17-0.019-0.345-0.029-0.521-0.029zM23.457 19.774c0 0.012-0.002 0.027-0.002 0.037 0 0.004 0 0.010 0 0.017-0.029 0.577-2.089 1.044-4.616 1.044-0.25 0-0.496-0.006-0.737-0.014 0.070-0.337 0.105-0.684 0.105-1.040 0-0.091-0.002-0.182-0.008-0.271 0.236 0.006 0.453 0.010 0.638 0.010 1.176 0 3.519-0.095 4.618-0.794v1.011h0.002zM23.457 17.799c0 0.012-0.002 0.027-0.002 0.037 0 0.004 0 0.010 0 0.017-0.029 0.577-2.089 1.044-4.616 1.044-0.244 0-0.482-0.006-0.718-0.014-0.101-0.546-0.283-1.060-0.54-1.532 0.478 0.029 0.917 0.037 1.258 0.037 1.176 0 3.519-0.095 4.618-0.794v1.205zM23.457 12.954c0 0.012-0.002 0.027-0.002 0.037 0 0.004 0 0.010 0 0.017-0.029 0.577-2.089 1.044-4.616 1.044s-4.587-0.467-4.616-1.044c0-0.012 0.002-0.023 0-0.033 0-0.006 0-0.014 0-0.021l-0.002-1.205c1.1 0.701 3.443 0.794 4.618 0.794s3.519-0.093 4.618-0.794v1.205zM18.839 7.799c2.622 0 4.245 0.49 4.52 0.796-0.275 0.306-1.898 0.796-4.52 0.796-2.62 0.002-4.245-0.49-4.52-0.796 0.275-0.306 1.9-0.796 4.52-0.796zM18.839 10.151c0.414 0 3.33-0.027 4.618-0.744v1.381c0 0.012-0.002 0.027-0.002 0.037 0 0.006 0 0.010 0 0.017-0.029 0.577-2.089 1.044-4.616 1.044s-4.587-0.467-4.616-1.044c0-0.012 0.002-0.023 0-0.033 0-0.006 0-0.014 0-0.023l-0.002-1.381c1.288 0.719 4.204 0.746 4.618 0.746zM18.839 14.994c0.414 0 3.33-0.027 4.618-0.744v1.381c0 0.012-0.002 0.027-0.002 0.037 0 0.004 0 0.010 0 0.017-0.029 0.577-2.089 1.044-4.616 1.044-0.607 0-1.186-0.027-1.717-0.076-0.714-0.92-1.734-1.588-2.901-1.852v-0.55c1.288 0.717 4.204 0.744 4.618 0.744zM17.554 19.817c0 2.472-1.996 4.484-4.45 4.484s-4.45-2.011-4.45-4.484c0-2.472 1.996-4.484 4.45-4.484s4.45 2.011 4.45 4.484z"></path>
<path d="M9.666 19.817c0 1.91 1.543 3.465 3.438 3.465s3.439-1.555 3.439-3.465c0-1.91-1.543-3.465-3.438-3.465-1.898 0-3.438 1.554-3.438 3.465zM16.108 19.817c0 1.668-1.348 3.026-3.004 3.026s-3.004-1.358-3.004-3.026c0-1.668 1.348-3.026 3.004-3.026s3.004 1.358 3.004 3.026z"></path>
<path d="M12.684 17.632v0.372c-0.181 0.068-0.336 0.172-0.46 0.304-0.193 0.205-0.297 0.48-0.297 0.769 0 0.155 0.029 0.3 0.086 0.43 0.078 0.18 0.211 0.339 0.398 0.471 0.144 0.103 0.32 0.194 0.558 0.289 0.195 0.079 0.275 0.145 0.308 0.176 0.023 0.025 0.033 0.039 0.037 0.052 0.004 0.010 0.010 0.027 0.010 0.054 0 0.043-0.012 0.070-0.043 0.095-0.045 0.039-0.125 0.060-0.215 0.060-0.217 0.010-0.419-0.083-0.533-0.159l-0.129-0.087c-0.055-0.037-0.125-0.048-0.189-0.025-0.064 0.021-0.115 0.070-0.137 0.134l-0.203 0.573c-0.033 0.093 0 0.196 0.078 0.252l0.076 0.054c0.119 0.087 0.269 0.155 0.441 0.205 0.060 0.019 0.121 0.033 0.183 0.045v0.325c0 0.122 0.098 0.219 0.217 0.219h0.558c0.121 0 0.217-0.099 0.217-0.219v-0.387c0.201-0.076 0.373-0.194 0.507-0.349 0.185-0.213 0.285-0.486 0.285-0.771 0-0.151-0.023-0.291-0.068-0.42-0.068-0.192-0.189-0.36-0.359-0.5-0.142-0.118-0.316-0.219-0.548-0.314-0.008-0.004-0.014-0.006-0.023-0.010-0.234-0.097-0.328-0.159-0.367-0.194-0.014-0.012-0.025-0.025-0.029-0.033-0.002-0.002-0.002-0.010-0.002-0.029 0-0.014 0.004-0.033 0.018-0.048 0.029-0.029 0.092-0.043 0.174-0.045 0.105 0 0.199 0.014 0.289 0.045 0.074 0.025 0.129 0.056 0.174 0.081l0.123 0.070c0.055 0.031 0.121 0.037 0.183 0.017 0.059-0.021 0.109-0.068 0.131-0.128l0.211-0.562c0.037-0.099-0.002-0.213-0.094-0.267l-0.096-0.050c-0.146-0.087-0.308-0.149-0.484-0.184v-0.308c0-0.122-0.096-0.219-0.217-0.219h-0.552c-0.121-0.002-0.217 0.095-0.217 0.217zM13.119 18.165v-0.314h0.117v0.277c0 0.114 0.086 0.207 0.197 0.219 0.158 0.014 0.302 0.056 0.431 0.118l-0.055 0.149c-0.045-0.021-0.094-0.043-0.152-0.062-0.133-0.045-0.277-0.068-0.429-0.068-0.203 0-0.363 0.058-0.476 0.169-0.096 0.095-0.15 0.223-0.15 0.364 0 0.083 0.014 0.153 0.045 0.217s0.074 0.12 0.133 0.174c0.096 0.087 0.252 0.172 0.503 0.275 0.197 0.081 0.339 0.161 0.447 0.252 0.109 0.089 0.185 0.194 0.226 0.31 0.029 0.081 0.043 0.172 0.043 0.271 0 0.178-0.064 0.349-0.178 0.482-0.109 0.126-0.263 0.217-0.447 0.263-0.098 0.025-0.166 0.112-0.166 0.213v0.329h-0.121v-0.298c0-0.114-0.086-0.209-0.199-0.219-0.101-0.008-0.201-0.027-0.297-0.056-0.094-0.027-0.181-0.062-0.25-0.103l0.053-0.153c0.201 0.108 0.441 0.169 0.667 0.169 0.203 0.004 0.371-0.056 0.499-0.163 0.127-0.11 0.197-0.256 0.197-0.43 0-0.083-0.014-0.157-0.045-0.227-0.029-0.068-0.070-0.13-0.127-0.188-0.098-0.101-0.248-0.192-0.455-0.275-0.205-0.081-0.353-0.157-0.466-0.238-0.121-0.087-0.203-0.182-0.25-0.291-0.033-0.074-0.049-0.161-0.049-0.254 0-0.178 0.064-0.343 0.181-0.467 0.103-0.11 0.244-0.19 0.41-0.229 0.098-0.025 0.166-0.112 0.166-0.213z"></path>
</symbol>
<symbol id="icon-registration_1" viewBox="0 0 34 32">
<path d="M19.31 19.333v2.814c-1.276-0.431-2.642-0.563-3.983-0.385s-2.617 0.66-3.723 1.406c-1.105 0.747-2.007 1.735-2.629 2.883s-0.947 2.422-0.946 3.715l-2.82-0.001c-0-1.644 0.393-3.267 1.151-4.744s1.859-2.768 3.22-3.775c1.361-1.007 2.945-1.703 4.632-2.035s3.43-0.291 5.097 0.12v0.001zM16.49 17.647c-4.674 0-8.46-3.616-8.46-8.080s3.786-8.080 8.46-8.080c4.674 0 8.46 3.616 8.46 8.080s-3.786 8.080-8.46 8.080zM16.49 14.954c3.116 0 5.64-2.41 5.64-5.386s-2.524-5.387-5.64-5.387-5.64 2.41-5.64 5.387c0 2.976 2.524 5.386 5.64 5.386zM24.95 23.034v-4.040h2.82v4.040h4.23v2.693h-4.23v4.040h-2.82v-4.040h-4.23v-2.693h4.23z"></path>
</symbol>
<symbol id="icon-registration_2" viewBox="0 0 33 32">
<path d="M15.678 27.157h-8.082c-0.357 0-0.7-0.142-0.952-0.396s-0.394-0.597-0.394-0.955v-18.91c0-0.358 0.142-0.702 0.394-0.955s0.595-0.396 0.952-0.396h6.735v4.052c0 1.075 0.426 2.105 1.184 2.865s1.786 1.187 2.857 1.187h4.041v6.754c0 0.358 0.142 0.702 0.395 0.955s0.595 0.396 0.952 0.396c0.357 0 0.7-0.142 0.952-0.396s0.394-0.597 0.394-0.955v-8.185c-0.014-0.124-0.041-0.246-0.081-0.365v-0.122c-0.065-0.139-0.151-0.267-0.256-0.378l-8.082-8.104c-0.111-0.105-0.239-0.192-0.377-0.257-0.045-0.008-0.090-0.008-0.135 0-0.131-0.070-0.272-0.12-0.418-0.149h-8.163c-1.072 0-2.1 0.427-2.857 1.187s-1.184 1.791-1.184 2.865v18.91c0 1.075 0.426 2.105 1.184 2.865s1.786 1.187 2.857 1.187h8.082c0.357 0 0.7-0.142 0.952-0.396s0.395-0.597 0.395-0.955c0-0.358-0.142-0.702-0.395-0.955s-0.595-0.396-0.952-0.396zM17.025 7.45l3.489 3.498h-2.142c-0.357 0-0.7-0.142-0.952-0.396s-0.395-0.597-0.395-0.955v-2.148zM10.29 19.053h8.082c0.357 0 0.7-0.142 0.952-0.396s0.395-0.597 0.395-0.955c0-0.358-0.142-0.702-0.395-0.955s-0.595-0.396-0.952-0.396h-8.082c-0.357 0-0.7 0.142-0.952 0.396s-0.395 0.597-0.395 0.955c0 0.358 0.142 0.702 0.395 0.955s0.595 0.396 0.952 0.396zM15.678 21.754h-5.388c-0.357 0-0.7 0.142-0.952 0.396s-0.395 0.597-0.395 0.955c0 0.358 0.142 0.702 0.395 0.955s0.595 0.396 0.952 0.396h5.388c0.357 0 0.7-0.142 0.952-0.396s0.395-0.597 0.395-0.955c0-0.358-0.142-0.702-0.395-0.955s-0.595-0.396-0.952-0.396zM10.29 13.65h1.347c0.357 0 0.7-0.142 0.952-0.396s0.395-0.597 0.395-0.955c0-0.358-0.142-0.702-0.395-0.955s-0.595-0.396-0.952-0.396h-1.347c-0.357 0-0.7 0.142-0.952 0.396s-0.395 0.597-0.395 0.955c0 0.358 0.142 0.702 0.395 0.955s0.595 0.396 0.952 0.396zM28.757 22.146c-0.125-0.127-0.274-0.227-0.438-0.296s-0.34-0.104-0.518-0.104c-0.178 0-0.354 0.035-0.518 0.104s-0.313 0.169-0.438 0.296l-4.431 4.457-1.738-1.756c-0.126-0.126-0.275-0.226-0.439-0.294s-0.34-0.103-0.518-0.103-0.354 0.035-0.518 0.103c-0.164 0.068-0.313 0.168-0.439 0.294s-0.225 0.276-0.293 0.44c-0.068 0.165-0.103 0.341-0.103 0.519s0.035 0.355 0.103 0.519c0.068 0.165 0.168 0.314 0.293 0.44l2.694 2.701c0.125 0.127 0.274 0.227 0.438 0.296s0.34 0.104 0.518 0.104c0.178 0 0.354-0.035 0.518-0.104s0.313-0.169 0.438-0.296l5.388-5.403c0.126-0.126 0.227-0.275 0.295-0.44s0.104-0.341 0.104-0.519c0-0.178-0.035-0.355-0.104-0.519s-0.169-0.314-0.295-0.44z"></path>
</symbol>
<symbol id="icon-registration_3" viewBox="0 0 34 32">
<path  d="M30.4 2.701c0 1.117-0.722 2.089-1.747 2.486v23.613h-28.653l8.013-12.122c-0.258-0.415-0.395-0.887-0.399-1.369 0-1.495 1.272-2.702 2.848-2.702s2.848 1.207 2.848 2.702c0 0.234-0.038 0.45-0.095 0.666l2.734 1.135c0.513-0.54 1.272-0.901 2.108-0.901 0.342 0 0.665 0.072 0.968 0.162l6.798-11.545c-0.684-0.486-1.12-1.261-1.12-2.125 0-1.495 1.272-2.702 2.848-2.702 0.361 0 0.684 0.072 1.006 0.18l0.095-0.162v0.198c1.025 0.396 1.747 1.369 1.747 2.486zM26.754 26.998v-20.065l-6.247 10.609c0.247 0.414 0.399 0.865 0.399 1.369 0 1.495-1.272 2.702-2.848 2.702s-2.848-1.207-2.848-2.702l0.019-0.126-3.095-1.297c-0.475 0.324-1.044 0.522-1.671 0.522-0.342 0-0.665-0.072-0.968-0.18l-6.076 9.168h23.336z"></path>
</symbol>
        <symbol id="icon-menu_open" viewBox="0 0 32 32">
      <path d="M6.4 11.733v-2.133h19.2v2.133h-19.2zM6.4 17.067h19.2v-2.133h-19.2v2.133zM6.4 22.4h19.2v-2.133h-19.2v2.133z"></path>
    </symbol>
    <symbol id="icon-menu_close" viewBox="0 0 32 32">
      <path d="M23.733 10.304l-1.504-1.504-5.963 5.963-5.963-5.963-1.504 1.504 5.963 5.963-5.963 5.963 1.504 1.504 5.963-5.963 5.963 5.963 1.504-1.504-5.963-5.963 5.963-5.963z"></path>
    </symbol>
  </defs>
</svg>
