<svg width="101" height="100" viewBox="0 0 101 100" fill="none" xmlns="http://www.w3.org/2000/svg">
<g clip-path="url(#clip0_1_676)">
<path d="M73.7337 25.7349H27.0671C24.4908 25.7381 22.4036 27.8253 22.4004 30.4015V62.1349C22.4036 64.7111 24.4908 66.7983 27.0671 66.8015H45.7337V64.9349H27.0671C25.5208 64.9349 24.2671 63.6812 24.2671 62.1349V30.4015C24.2671 28.8552 25.5208 27.6015 27.0671 27.6015H73.7337C75.28 27.6015 76.5337 28.8552 76.5337 30.4015V62.1349C76.5337 63.6812 75.28 64.9349 73.7337 64.9349H72.8004V66.8015H73.7337C76.31 66.7983 78.3972 64.7111 78.4004 62.1349V30.4015C78.3972 27.8253 76.31 25.7381 73.7337 25.7349Z" fill="white"/>
<path d="M73.7341 60.2673V30.4006C73.7341 29.8852 73.3161 29.4673 72.8007 29.4673H28.0007C27.4853 29.4673 27.0674 29.8852 27.0674 30.4006V62.134C27.0674 62.6494 27.4853 63.0673 28.0007 63.0673H52.2674V61.2006H28.934V31.334H71.8674V60.2673H73.7341Z" fill="white"/>
<path d="M30.7998 33.1997H32.6665V35.0664H30.7998V33.1997Z" fill="white"/>
<path d="M30.7998 36.9341H34.5331V38.8007H30.7998V36.9341Z" fill="white"/>
<path d="M30.7998 40.6665H34.5331V42.5332H30.7998V40.6665Z" fill="white"/>
<path d="M30.7998 44.3989H34.5331V46.2656H30.7998V44.3989Z" fill="white"/>
<path d="M30.7998 48.1338H34.5331V50.0005H30.7998V48.1338Z" fill="white"/>
<path d="M30.7998 51.8662H34.5331V53.7329H30.7998V51.8662Z" fill="white"/>
<path d="M30.7998 55.6011H34.5331V57.4678H30.7998V55.6011Z" fill="white"/>
<path d="M70.0005 48.1341H42.0005V45.7205L43.7227 43.9983L44.9572 45.8522C45.1113 46.086 45.3619 46.2383 45.6404 46.2674H45.7338C45.9813 46.2674 46.2187 46.169 46.3937 45.994L50.4005 41.9872L52.5406 44.1273C52.7242 44.3151 52.9803 44.4144 53.2424 44.3998C53.5044 44.3875 53.7496 44.2663 53.9182 44.0658L57.8671 39.3253L61.816 44.0658C61.9846 44.2663 62.2298 44.3875 62.4919 44.3998C62.7544 44.4153 63.0105 44.316 63.1937 44.1273L65.3338 41.9872L66.5406 43.194C66.7297 43.389 66.9963 43.4884 67.2665 43.4647C67.5368 43.4446 67.7852 43.3084 67.9469 43.0914L70.747 39.3581L69.254 38.2379L67.0997 41.1108L65.9937 40.0048C65.6291 39.6402 65.0385 39.6402 64.6739 40.0048L62.5962 42.0825L58.5831 37.2663C58.3994 37.0635 58.1387 36.9478 57.8653 36.9478C57.5919 36.9478 57.3312 37.0635 57.1475 37.2663L53.1344 42.0825L51.0567 40.0048C50.6921 39.6402 50.1015 39.6402 49.7369 40.0048L45.8746 43.8671L44.64 42.0132C44.4846 41.7808 44.2335 41.6299 43.9551 41.6026C43.6771 41.5752 43.4014 41.6737 43.2036 41.8715L42.0005 43.081V36.9341H40.1338V49.0674C40.1338 49.5828 40.5517 50.0008 41.0671 50.0008H70.0005V48.1341Z" fill="white"/>
<path d="M40.1338 33.1997H45.7338V35.0664H40.1338V33.1997Z" fill="white"/>
<path d="M47.5996 33.1997H49.4663V35.0664H47.5996V33.1997Z" fill="white"/>
<path d="M40.1338 51.8662H43.8671V53.7329H40.1338V51.8662Z" fill="white"/>
<path d="M45.7334 51.8662H47.6001V53.7329H45.7334V51.8662Z" fill="white"/>
<path d="M40.1338 55.6011H43.8671V57.4678H40.1338V55.6011Z" fill="white"/>
<path d="M45.7334 55.6011H47.6001V57.4678H45.7334V55.6011Z" fill="white"/>
<path d="M51.334 51.8662H53.2007V53.7329H51.334V51.8662Z" fill="white"/>
<path d="M62.5342 51.8662H66.2675V53.7329H62.5342V51.8662Z" fill="white"/>
<path d="M68.1338 51.8662H70.0005V53.7329H68.1338V51.8662Z" fill="white"/>
<path d="M62.5342 55.6011H66.2675V57.4678H62.5342V55.6011Z" fill="white"/>
<path d="M68.1338 55.6011H70.0005V57.4678H68.1338V55.6011Z" fill="white"/>
<path d="M68.6003 60.3041C67.7859 60.1692 66.9533 60.3988 66.3239 60.933C66.3052 60.948 66.2875 60.964 66.2688 60.9808C65.2069 60.0274 63.5973 60.0274 62.5354 60.9808C61.763 60.3191 60.7016 60.1085 59.7354 60.4253V55.6998C59.7532 54.3067 58.7702 53.1013 57.4021 52.8374C56.5891 52.6993 55.756 52.9267 55.1262 53.4595C54.4959 53.9918 54.1332 54.7752 54.1336 55.6V67.0183L51.6567 65.5326C50.9002 65.0755 49.9623 65.0404 49.1739 65.4392L49.0263 65.5121C48.2169 65.9173 47.6791 66.7171 47.6085 67.6194C47.5378 68.5218 47.9448 69.3954 48.6813 69.9222L54.5246 74.0949C54.6832 74.2074 54.8728 74.2671 55.0669 74.2667H70.0003C70.5157 74.2667 70.9336 73.8488 70.9336 73.3333V63.1665C70.9509 61.7733 69.9684 60.5679 68.6003 60.3041ZM69.067 72.4H55.3655L49.7654 68.4005C49.5613 68.2556 49.4478 68.0136 49.4669 67.7634C49.4861 67.5132 49.6347 67.2913 49.8589 67.1787L50.0056 67.1063C50.2235 66.9955 50.4828 67.0055 50.6915 67.1322L54.5825 69.4656C54.871 69.6406 55.2315 69.6465 55.525 69.4811C55.8189 69.3152 56.0007 69.0039 56.0003 68.6667V55.6C56.0003 55.3257 56.1206 55.0655 56.3298 54.8877C56.5412 54.7068 56.8229 54.6307 57.0968 54.6808C57.563 54.7947 57.8847 55.2204 57.867 55.6998V63.0667C57.867 63.5821 58.2849 64 58.8003 64C59.3157 64 59.7336 63.5821 59.7336 63.0667C59.7336 62.5513 60.1515 62.1334 60.667 62.1334C61.1824 62.1334 61.6003 62.5513 61.6003 63.0667C61.6003 63.5821 62.0182 64 62.5336 64C63.0491 64 63.467 63.5821 63.467 63.0667C63.467 62.5513 63.8849 62.1334 64.4003 62.1334C64.9157 62.1334 65.3336 62.5513 65.3336 63.0667C65.3336 63.5821 65.7515 64 66.267 64C66.7824 64 67.2003 63.5821 67.2003 63.0667C67.2003 62.7905 67.3224 62.5285 67.5339 62.3512C67.7458 62.1735 68.0252 62.0992 68.2968 62.1475C68.763 62.2614 69.0847 62.6871 69.067 63.1665V72.4Z" fill="white"/>
<path d="M36.4004 33.1997H38.2671V59.333H36.4004V33.1997Z" fill="white"/>
</g>
<defs>
<clipPath id="clip0_1_676">
<rect width="56" height="56" fill="white" transform="translate(22.4004 22)"/>
</clipPath>
</defs>
</svg>
