<svg width="100" height="100" viewBox="0 0 100 100" fill="none" xmlns="http://www.w3.org/2000/svg">
<g clip-path="url(#clip0_1_745)">
<path d="M40.9513 45.856C32.155 45.856 25 53.0652 25 61.928C25 70.7909 32.155 78 40.9513 78C47.9076 78 53.8316 73.4911 56.0051 67.2251C57.0821 67.2703 58.0695 67.2832 58.8709 67.2832C63.7691 67.2832 75.162 66.7599 75.162 61.9216C75.162 61.9086 75.162 61.8893 75.162 61.8763C75.162 61.8634 75.162 61.8505 75.162 61.8376V55.6685V55.3842C75.1941 55.2421 75.2069 55.0936 75.2069 54.9385C75.2069 54.7964 75.1877 54.6543 75.162 54.5186V49.2087C75.1941 49.0666 75.2069 48.918 75.2069 48.7629C75.2069 48.6208 75.1877 48.4787 75.162 48.3431V42.4323C75.1941 42.2902 75.2069 42.1417 75.2069 41.9866C75.2069 41.7347 75.1556 41.4957 75.0723 41.2696C75.1236 41.0564 75.1556 40.8368 75.1556 40.6042C75.1556 40.5913 75.1556 40.5784 75.1556 40.559C75.1556 40.5461 75.1556 40.5332 75.1556 40.5202V34.0669C75.1877 33.9248 75.2005 33.7762 75.2005 33.6212C75.2005 33.4791 75.1813 33.3369 75.1556 33.2078V27.3035C75.1877 27.1614 75.2005 27.0128 75.2005 26.8578C75.2005 26.5929 75.1492 26.3474 75.0594 26.1149C74.9184 25.6175 74.6106 25.2041 74.2003 24.9457C70.8793 22.0969 60.2814 22 58.8709 22C57.4668 22 46.8625 22.0969 43.5351 24.9392C43.1247 25.1976 42.817 25.611 42.676 26.1084C42.5862 26.3474 42.5349 26.5929 42.5349 26.8578C42.5349 27.0128 42.5541 27.1549 42.5798 27.3035V33.2142C42.5541 33.3499 42.5349 33.4855 42.5349 33.6341C42.5349 33.7891 42.5541 33.9312 42.5798 34.0798V40.5332C42.5798 40.5461 42.5798 40.559 42.5798 40.5784C42.5798 40.5913 42.5798 40.6042 42.5798 40.6171C42.5798 40.8497 42.6118 41.0693 42.6631 41.2825C42.5798 41.5086 42.5349 41.7476 42.5349 41.9995C42.5349 42.1546 42.5541 42.2967 42.5798 42.4453V45.9465C42.0476 45.8883 41.5027 45.856 40.9513 45.856ZM73.3027 61.7924C73.3027 61.8311 73.2963 61.8763 73.2963 61.9086C73.2963 61.9216 73.2963 61.9409 73.2963 61.9603C73.2066 63.7626 66.7696 65.2225 58.8709 65.2225C58.0887 65.2225 57.3194 65.2031 56.5692 65.1773C56.7872 64.1243 56.8962 63.0391 56.8962 61.928C56.8962 61.6438 56.8898 61.3596 56.8706 61.0818C57.6079 61.1012 58.2875 61.1141 58.8645 61.1141C62.5382 61.1141 69.8599 60.8169 73.2963 58.6335V61.7924H73.3027ZM73.3027 55.6233C73.3027 55.662 73.2963 55.7072 73.2963 55.7395C73.2963 55.7524 73.2963 55.7718 73.2963 55.7912C73.2066 57.5935 66.7696 59.0534 58.8709 59.0534C58.108 59.0534 57.3642 59.034 56.6269 59.0082C56.3128 57.3028 55.7422 55.6943 54.9408 54.2215C56.4346 54.3119 57.8066 54.3378 58.8709 54.3378C62.5446 54.3378 69.8663 54.0406 73.3027 51.8572V55.6233ZM73.3027 40.4815C73.3027 40.5202 73.2963 40.5655 73.2963 40.5978C73.2963 40.6107 73.2963 40.6301 73.2963 40.6494C73.2066 42.4517 66.7696 43.9116 58.8709 43.9116C50.9722 43.9116 44.5352 42.4517 44.4455 40.6494C44.4455 40.6107 44.4519 40.5784 44.4455 40.5461C44.4455 40.5267 44.4455 40.5009 44.4455 40.4815L44.4391 36.7154C47.8755 38.9053 55.1972 39.196 58.8709 39.196C62.5446 39.196 69.8663 38.9053 73.3027 36.7154V40.4815ZM58.8709 24.3707C67.0645 24.3707 72.1359 25.9017 72.995 26.8578C72.1359 27.8138 67.0645 29.3448 58.8709 29.3448C50.6837 29.3513 45.6059 27.8138 44.7468 26.8578C45.6059 25.9017 50.6837 24.3707 58.8709 24.3707ZM58.8709 31.722C60.166 31.722 69.2764 31.638 73.3027 29.3965V33.7116C73.3027 33.7504 73.2963 33.7956 73.2963 33.8279C73.2963 33.8473 73.2963 33.8602 73.2963 33.8796C73.2066 35.6819 66.7696 37.1418 58.8709 37.1418C50.9722 37.1418 44.5352 35.6819 44.4455 33.8796C44.4455 33.8408 44.4519 33.8085 44.4455 33.7762C44.4455 33.7568 44.4455 33.731 44.4455 33.7052L44.4391 29.39C48.4654 31.638 57.5758 31.722 58.8709 31.722ZM58.8709 46.8573C60.166 46.8573 69.2764 46.7733 73.3027 44.5318V48.8469C73.3027 48.8857 73.2963 48.9309 73.2963 48.9632C73.2963 48.9761 73.2963 48.9955 73.2963 49.0149C73.2066 50.8172 66.7696 52.2771 58.8709 52.2771C56.9732 52.2771 55.1652 52.1931 53.5046 52.0381C51.2735 49.1635 48.0871 47.0769 44.4391 46.2501V44.5318C48.4654 46.7733 57.5758 46.8573 58.8709 46.8573ZM54.8574 61.928C54.8574 69.6539 48.6192 75.9393 40.9513 75.9393C33.2834 75.9393 27.0452 69.6539 27.0452 61.928C27.0452 54.2021 33.2834 47.9167 40.9513 47.9167C48.6192 47.9167 54.8574 54.2021 54.8574 61.928Z" fill="white"/>
<path d="M30.2061 61.9282C30.2061 67.897 35.0274 72.7548 40.9514 72.7548C46.8754 72.7548 51.6967 67.897 51.6967 61.9282C51.6967 55.9593 46.8754 51.1016 40.9514 51.1016C35.0209 51.1016 30.2061 55.9593 30.2061 61.9282ZM50.3375 61.9282C50.3375 67.1412 46.1253 71.3853 40.9514 71.3853C35.7775 71.3853 31.5653 67.1412 31.5653 61.9282C31.5653 56.7151 35.7775 52.471 40.9514 52.471C46.1253 52.471 50.3375 56.7151 50.3375 61.9282Z" fill="white"/>
<path d="M39.6374 55.0998V56.2625C39.0732 56.4757 38.586 56.7987 38.2013 57.2121C37.5986 57.8516 37.2717 58.7108 37.2717 59.6152C37.2717 60.0997 37.3614 60.5518 37.5409 60.9588C37.7846 61.5208 38.2013 62.0182 38.7847 62.4316C39.2335 62.7546 39.7849 63.0389 40.5286 63.336C41.1377 63.5815 41.3877 63.7882 41.4903 63.8851C41.5608 63.9626 41.5929 64.0078 41.6057 64.0466C41.6185 64.0789 41.6378 64.1306 41.6378 64.2145C41.6378 64.3502 41.5993 64.4342 41.5031 64.5117C41.3621 64.6344 41.112 64.699 40.8299 64.699C40.1503 64.7313 39.522 64.4406 39.163 64.2016L38.7591 63.9303C38.586 63.814 38.368 63.7817 38.1692 63.8528C37.9705 63.9174 37.8102 64.0724 37.7397 64.2727L37.105 66.062C37.0024 66.3527 37.105 66.6757 37.3486 66.8501L37.5858 67.0181C37.9577 67.2894 38.4257 67.5026 38.9642 67.6576C39.1502 67.7158 39.3425 67.761 39.5348 67.7997V68.8139C39.5348 69.1951 39.8426 69.4987 40.2144 69.4987H41.9583C42.3366 69.4987 42.6379 69.1886 42.6379 68.8139V67.6059C43.2662 67.3669 43.8048 66.9987 44.2215 66.5142C44.7985 65.8489 45.1127 64.9962 45.1127 64.1047C45.1127 63.6332 45.0422 63.1939 44.9011 62.7934C44.6895 62.1926 44.3113 61.6694 43.7791 61.2301C43.3367 60.8619 42.7918 60.5454 42.0673 60.2482C42.0417 60.2353 42.0224 60.2288 41.9968 60.2159C41.2659 59.9123 40.971 59.7185 40.8492 59.6087C40.8043 59.5699 40.7722 59.5312 40.7594 59.5054C40.753 59.4989 40.753 59.4731 40.753 59.4149C40.753 59.3697 40.7658 59.3116 40.8107 59.2663C40.9005 59.1759 41.0992 59.1307 41.3557 59.1242C41.6826 59.1242 41.9776 59.1694 42.2596 59.2663C42.4905 59.3439 42.6636 59.4408 42.8046 59.5183L43.1893 59.7379C43.3624 59.8348 43.5676 59.8542 43.7599 59.7896C43.9458 59.725 44.0997 59.5764 44.1702 59.3891L44.8306 57.632C44.946 57.3219 44.8242 56.9666 44.5357 56.7987L44.2343 56.6437C43.7791 56.3723 43.2726 56.1786 42.7213 56.0687V55.1062C42.7213 54.7251 42.4199 54.4215 42.0417 54.4215H40.317C39.9388 54.415 39.6374 54.7186 39.6374 55.0998ZM40.9966 56.7664V55.7845H41.3621V56.6501C41.3621 57.0054 41.6313 57.2961 41.9776 57.3349C42.4712 57.3801 42.92 57.5093 43.3239 57.7031L43.1508 58.1682C43.0098 58.1036 42.8559 58.0325 42.6764 57.9744C42.2596 57.8323 41.8109 57.7612 41.3364 57.7612C40.7017 57.7612 40.2016 57.9421 39.849 58.2909C39.5477 58.5881 39.381 58.9886 39.381 59.4278C39.381 59.6862 39.4259 59.9059 39.522 60.1061C39.6182 60.3064 39.7528 60.4808 39.9388 60.6487C40.2401 60.92 40.7273 61.1849 41.5095 61.5079C42.125 61.7598 42.5674 62.0118 42.9072 62.296C43.247 62.5738 43.4842 62.9032 43.6124 63.265C43.7022 63.5169 43.7471 63.8011 43.7471 64.1112C43.7471 64.6667 43.5483 65.2029 43.1893 65.6163C42.8495 66.0104 42.3686 66.2946 41.7916 66.4367C41.4839 66.5142 41.2723 66.7855 41.2723 67.1021V68.1292H40.894V67.199C40.894 66.8437 40.6248 66.5465 40.2721 66.5142C39.958 66.4884 39.6438 66.4303 39.3425 66.3398C39.0476 66.2558 38.7783 66.146 38.5603 66.0168L38.727 65.5388C39.3553 65.8747 40.1055 66.0685 40.8107 66.0685C41.4454 66.0814 41.9711 65.8941 42.3686 65.5582C42.7661 65.2158 42.9841 64.7572 42.9841 64.2145C42.9841 63.9562 42.9392 63.7236 42.8431 63.504C42.7533 63.2908 42.6251 63.097 42.4456 62.9161C42.1378 62.5996 41.6698 62.3154 41.0223 62.057C40.3811 61.805 39.9195 61.566 39.5669 61.3141C39.1886 61.0428 38.9322 60.7456 38.7847 60.4033C38.6821 60.1707 38.6309 59.8994 38.6309 59.6087C38.6309 59.0532 38.8296 58.5364 39.195 58.1488C39.5156 57.8064 39.958 57.5545 40.4773 57.4318C40.7851 57.3542 40.9966 57.0829 40.9966 56.7664Z" fill="white"/>
</g>
<defs>
<clipPath id="clip0_1_745">
<rect width="50.2069" height="56" fill="white" transform="translate(25 22)"/>
</clipPath>
</defs>
</svg>
