<svg width="100" height="100" viewBox="0 0 100 100" fill="none" xmlns="http://www.w3.org/2000/svg">
<g clip-path="url(#clip0_1_649)">
<path d="M67.4462 70.7747L65.3552 64.5008C64.6245 62.3105 62.7603 60.6938 60.4877 60.2801L54.4515 59.1818V58.7139C55.5019 58.1042 56.416 57.2886 57.144 56.323H58.9676C60.4616 56.323 61.6773 55.1073 61.6773 53.6134V42.7747C61.6773 36.3003 56.4097 31.0327 49.9354 31.0327C43.461 31.0327 38.1934 36.3003 38.1934 42.7747V49.0972C38.1934 50.8387 39.4317 52.2956 41.0738 52.6352C41.5805 55.231 43.2027 57.4277 45.4192 58.7139V59.1818L39.3821 60.2801C37.1105 60.6938 35.2453 62.3105 34.5155 64.5008L34.1542 65.5856L31.0778 62.5092C30.7256 62.157 30.7256 61.5834 31.0778 61.2312L34.6456 57.6643L27.949 50.9678L23.917 54.9998C22.723 56.1939 22.0654 57.7817 22.0654 59.4708C22.0654 61.1598 22.723 62.7468 23.917 63.9408L36.1241 76.1479C37.3182 77.342 38.9061 78.0005 40.5951 78.0005C42.2841 78.0005 43.8711 77.342 45.0372 76.175L49.4368 72.1439L48.0648 70.7747H67.4462ZM59.8708 53.6134C59.8708 54.1119 59.4653 54.5166 58.9676 54.5166H58.208C58.4699 53.9196 58.6686 53.29 58.7969 52.6352C59.1835 52.5548 59.5394 52.4012 59.8708 52.2079V53.6134ZM58.9676 50.6526V47.5419C59.505 47.8553 59.8708 48.4316 59.8708 49.0972C59.8708 49.7629 59.505 50.3392 58.9676 50.6526ZM40.9031 50.6526C40.3657 50.3392 39.9999 49.7629 39.9999 49.0972C39.9999 48.4316 40.3657 47.8553 40.9031 47.5419V50.6526ZM40.9031 44.5811V45.6126C40.5816 45.6966 40.2799 45.823 39.9999 45.9865V42.7747C39.9999 37.2966 44.4573 32.8392 49.9354 32.8392C55.4134 32.8392 59.8708 37.2966 59.8708 42.7747V45.9865C59.5908 45.823 59.2892 45.6957 58.9676 45.6126V44.5811H58.0644C55.3936 44.5811 52.8826 43.5406 50.993 41.6519L49.9354 40.5943L48.8777 41.6519C46.9881 43.5406 44.4772 44.5811 41.8063 44.5811H40.9031ZM42.7096 50.9037V46.3532C45.4219 46.1491 47.951 45.03 49.9354 43.1432C51.9197 45.03 54.4488 46.15 57.1612 46.3532V50.9037C57.1612 52.2206 56.8017 53.4526 56.1839 54.5166H49.9354V56.323H54.699C53.4254 57.4439 51.7608 58.1295 49.9354 58.1295C45.9512 58.1295 42.7096 54.8878 42.7096 50.9037ZM52.645 59.5196V59.562L49.9354 62.2717L47.2257 59.562V59.5196C48.0819 59.7887 48.9915 59.9359 49.9354 59.9359C50.8792 59.9359 51.7888 59.7887 52.645 59.5196ZM36.228 65.0717C36.7492 63.5073 38.0814 62.3521 39.7045 62.0558L46.0181 60.9087L49.9354 64.826L53.8517 60.9096L60.1644 62.0567C61.7875 62.353 63.1197 63.5073 63.6409 65.0726L64.9407 68.9682H46.2583L42.7403 65.4501L38.8311 68.9863C38.4906 69.3286 37.8954 69.3286 37.5539 68.9863L35.5813 67.0136L36.228 65.0717ZM27.9481 53.5221L32.0903 57.6643L31.1094 58.6452L26.9672 54.503L27.9481 53.5221ZM43.7862 74.8726C42.9336 75.7234 41.7991 76.194 40.5933 76.194C39.3875 76.194 38.253 75.7234 37.3995 74.8708L25.1924 62.6646C24.3398 61.8119 23.8701 60.6775 23.8701 59.4717C23.8701 58.265 24.3398 57.1305 25.1924 56.2779L25.6892 55.7811L29.8314 59.9233L29.7988 59.9558C28.743 61.0126 28.743 62.7314 29.7988 63.7882L36.2759 70.2652C36.788 70.7765 37.4681 71.0592 38.1925 71.0592C38.9169 71.0592 39.597 70.7774 40.0758 70.2968L40.1435 70.2363L44.3047 74.3975L43.7862 74.8726ZM45.6378 73.1745L41.4857 69.0224L42.6788 67.9439L46.8237 72.0888L45.6378 73.1745Z" fill="white"/>
<path d="M75.2259 22H62.5808C61.0868 22 59.8711 23.2157 59.8711 24.7097V31.9355C59.8711 33.4294 61.0868 34.6452 62.5808 34.6452H64.9933L64.0593 40.0925L72.7755 34.6452H75.2259C76.7199 34.6452 77.9356 33.4294 77.9356 31.9355V24.7097C77.9356 23.2157 76.7199 22 75.2259 22ZM76.1292 31.9355C76.1292 32.4332 75.7236 32.8387 75.2259 32.8387H72.257L66.5206 36.4236L67.1357 32.8387H62.5808C62.0831 32.8387 61.6775 32.4332 61.6775 31.9355V24.7097C61.6775 24.212 62.0831 23.8065 62.5808 23.8065H75.2259C75.7236 23.8065 76.1292 24.212 76.1292 24.7097V31.9355Z" fill="white"/>
<path d="M74.3221 25.6118H63.4834V27.4183H74.3221V25.6118Z" fill="white"/>
<path d="M70.7092 29.2256H63.4834V31.032H70.7092V29.2256Z" fill="white"/>
<path d="M74.3231 29.2256H72.5166V31.032H74.3231V29.2256Z" fill="white"/>
<path d="M49.9353 24.7095C38.1337 24.7095 27.9679 32.8728 25.3251 44.2598L23.6135 41.4065L22.0645 42.3359L25.2393 47.6261L30.5295 44.4513L29.6001 42.9022L27.1523 44.3709C29.7121 33.954 39.0794 26.5159 49.9353 26.5159C52.3081 26.5159 54.6492 26.8682 56.8937 27.5637L57.4285 25.8385C55.0105 25.0888 52.4896 24.7095 49.9353 24.7095Z" fill="white"/>
<path d="M77.4966 42L72.2064 38.8252L69.0325 44.1163L70.5815 45.0457L72.1622 42.411C72.994 44.8452 73.4195 47.3914 73.4195 50.0008C73.4195 55.3723 71.5588 60.6237 68.1816 64.7866L69.5843 65.9247C73.2225 61.4411 75.2259 55.7851 75.2259 50.0008C75.2259 47.2378 74.7806 44.5399 73.9126 41.9567L76.5672 43.5491L77.4966 42Z" fill="white"/>
</g>
<defs>
<clipPath id="clip0_1_649">
<rect width="56" height="56" fill="white" transform="translate(22 22)"/>
</clipPath>
</defs>
</svg>
