<svg width="101" height="100" viewBox="0 0 101 100" fill="none" xmlns="http://www.w3.org/2000/svg">
<g clip-path="url(#clip0_1_705)">
<path d="M37.3167 73.3856C39.5717 73.3856 41.4075 71.6513 41.4075 69.5236V41.1838C41.4075 39.0561 39.5717 37.3218 37.3167 37.3218H29.8906C27.6357 37.3218 25.7998 39.0502 25.7998 41.1838V69.5295C25.7998 71.6572 27.6357 73.3916 29.8906 73.3916H37.3167V73.3856ZM27.8364 69.5236V41.1838C27.8364 40.1885 28.7572 39.378 29.8847 39.378H37.3108C38.4442 39.378 39.3592 40.1885 39.3592 41.1838V69.5295C39.3592 70.5248 38.4383 71.3354 37.3108 71.3354H29.8906C28.7572 71.3294 27.8364 70.5189 27.8364 69.5236Z" fill="white"/>
<path d="M64.3877 23C62.1327 23 60.2969 25.2648 60.2969 28.0541V68.3316C60.2969 71.1209 62.1327 73.3857 64.3877 73.3857H71.8138C74.0687 73.3857 75.9046 71.1209 75.9046 68.3316V28.0541C75.9046 25.2648 74.0746 23 71.8138 23H64.3877ZM73.868 28.0541V68.3316C73.868 69.9527 72.9294 71.3295 71.8138 71.3295H64.3877C63.2779 71.3295 62.3393 69.9587 62.3393 68.3316V28.0541C62.3393 26.4329 63.2779 25.0562 64.3877 25.0562H71.8138C72.9294 25.0562 73.868 26.4329 73.868 28.0541Z" fill="white"/>
<path d="M46.8975 73.3859H54.3235C56.6198 73.3859 58.4144 72.1104 58.4144 70.4834V51.7511C58.4144 50.1241 56.6198 48.8486 54.3235 48.8486H46.8975C44.6012 48.8486 42.8066 50.1241 42.8066 51.7511V70.4834C42.8066 72.1164 44.6012 73.3859 46.8975 73.3859ZM44.8432 51.7511C44.8432 51.4949 45.6165 50.9108 46.8916 50.9108H54.3176C55.5927 50.9108 56.366 51.4949 56.366 51.7511V70.4834C56.366 70.7396 55.5927 71.3237 54.3176 71.3237H46.8975C45.6224 71.3237 44.8491 70.7396 44.8491 70.4834V51.7511H44.8432Z" fill="white"/>
<path d="M27.5889 77.1168C27.5889 78.1598 28.5038 79.0061 29.6372 79.0061H72.8418C73.9752 79.0061 74.8902 78.1598 74.8902 77.1168C74.8902 76.0738 73.9752 75.2334 72.8418 75.2334H29.6313C28.5038 75.2275 27.5889 76.0738 27.5889 77.1168Z" fill="white"/>
</g>
<defs>
<clipPath id="clip0_1_705">
<rect width="50.1053" height="56" fill="white" transform="translate(25.7998 23)"/>
</clipPath>
</defs>
</svg>
