<svg width="101" height="100" viewBox="0 0 101 100" fill="none" xmlns="http://www.w3.org/2000/svg">
<g clip-path="url(#clip0_1_725)">
<path d="M50.5998 47.1992C50.4635 47.1992 50.3282 47.1693 50.2022 47.1105L34.3355 39.6438C34.0089 39.4898 33.7998 39.1604 33.7998 38.7992C33.7998 38.438 34.0089 38.1085 34.3355 37.9545L50.2022 30.4878C50.4542 30.3693 50.7454 30.3693 50.9974 30.4878L66.8641 37.9545C67.1907 38.1085 67.3998 38.438 67.3998 38.7992C67.3998 39.1604 67.1907 39.4898 66.8641 39.6438L50.9974 47.1105C50.8714 47.1693 50.7361 47.1992 50.5998 47.1992ZM36.9255 38.7992L50.5998 45.2345L64.2741 38.7992L50.5998 32.3638L36.9255 38.7992Z" fill="white"/>
<path d="M50.6001 54.6662C50.4573 54.6662 50.3136 54.6336 50.1829 54.5682L38.9829 48.9682C38.6665 48.8096 38.4668 48.4866 38.4668 48.1329V40.9957C38.4668 40.6765 38.6301 40.3787 38.8999 40.2079C39.1696 40.0362 39.5084 40.0166 39.7968 40.151L50.6001 45.2349L61.4025 40.151C61.6919 40.0157 62.0307 40.0362 62.2995 40.2079C62.5701 40.3787 62.7335 40.6765 62.7335 40.9957V48.1329C62.7335 48.4866 62.5337 48.8096 62.2173 48.9682L51.0173 54.5682C50.8867 54.6336 50.7429 54.6662 50.6001 54.6662ZM40.3335 47.5561L50.6001 52.6894L60.8668 47.5561V42.4666L50.9977 47.1109C50.7457 47.2294 50.4545 47.2294 50.2025 47.1109L40.3335 42.4666V47.5561Z" fill="white"/>
<path d="M66.466 39.7329H50.5993C50.0841 39.7329 49.666 39.3147 49.666 38.7995C49.666 38.2843 50.0841 37.8662 50.5993 37.8662H66.466C66.9812 37.8662 67.3993 38.2843 67.3993 38.7995C67.3993 39.3147 66.9812 39.7329 66.466 39.7329Z" fill="white"/>
<path d="M66.4665 48.1329C65.9513 48.1329 65.5332 47.7147 65.5332 47.1995V38.7995C65.5332 38.2843 65.9513 37.8662 66.4665 37.8662C66.9817 37.8662 67.3999 38.2843 67.3999 38.7995V47.1995C67.3999 47.7147 66.9817 48.1329 66.4665 48.1329Z" fill="white"/>
<path d="M50.5993 41.6C50.0841 41.6 49.666 41.1819 49.666 40.6667V36.9333C49.666 36.4181 50.0841 36 50.5993 36C51.1145 36 51.5327 36.4181 51.5327 36.9333V40.6667C51.5327 41.1819 51.1145 41.6 50.5993 41.6Z" fill="white"/>
<path d="M64.5983 50.9327C64.421 50.9327 64.2408 50.8823 64.0812 50.7759C63.6528 50.4903 63.5371 49.9107 63.8227 49.4814L65.6894 46.6814C65.975 46.2521 66.5536 46.1354 66.9839 46.4229C67.4123 46.7085 67.528 47.2881 67.2424 47.7174L65.3758 50.5174C65.1956 50.7871 64.8998 50.9327 64.5983 50.9327Z" fill="white"/>
<path d="M68.334 50.9327C68.0325 50.9327 67.7367 50.7871 67.5565 50.5174L65.6899 47.7174C65.4043 47.289 65.52 46.7085 65.9484 46.4229C66.3768 46.1354 66.9564 46.2521 67.2429 46.6814L69.1096 49.4814C69.3952 49.9098 69.2795 50.4903 68.8511 50.7759C68.6915 50.8823 68.5113 50.9327 68.334 50.9327Z" fill="white"/>
<path d="M50.5993 50.0002C50.0841 50.0002 49.666 49.582 49.666 49.0668V46.2668C49.666 45.7516 50.0841 45.3335 50.5993 45.3335C51.1145 45.3335 51.5327 45.7516 51.5327 46.2668V49.0668C51.5327 49.582 51.1145 50.0002 50.5993 50.0002Z" fill="white"/>
<path d="M77.6663 58.3988H23.5329C23.0177 58.3988 22.5996 57.9807 22.5996 57.4655V26.6664C22.5996 24.6075 24.2749 22.9321 26.3339 22.9321H74.8653C76.9243 22.9321 78.5996 24.6075 78.5996 26.6664V57.4655C78.5996 57.9807 78.1815 58.3988 77.6663 58.3988ZM24.4663 56.5321H76.7329V26.6664C76.7329 25.636 75.8957 24.7988 74.8653 24.7988H26.3339C25.3035 24.7988 24.4663 25.636 24.4663 26.6664V56.5321Z" fill="white"/>
<path d="M74.8653 65.866H26.3339C24.2749 65.866 22.5996 64.1907 22.5996 62.1318V57.466C22.5996 56.9508 23.0177 56.5327 23.5329 56.5327H77.6663C78.1815 56.5327 78.5996 56.9508 78.5996 57.466V62.1318C78.5996 64.1907 76.9243 65.866 74.8653 65.866ZM24.4663 58.3994V62.1318C24.4663 63.1622 25.3035 63.9994 26.3339 63.9994H74.8653C75.8957 63.9994 76.7329 63.1622 76.7329 62.1318V58.3994H24.4663Z" fill="white"/>
<path d="M53.3995 62.1342H47.7995C47.2843 62.1342 46.8662 61.7161 46.8662 61.2009C46.8662 60.6857 47.2843 60.2676 47.7995 60.2676H53.3995C53.9147 60.2676 54.3329 60.6857 54.3329 61.2009C54.3329 61.7161 53.9147 62.1342 53.3995 62.1342Z" fill="white"/>
<path d="M73.933 58.3998H27.2663C26.7511 58.3998 26.333 57.9817 26.333 57.4665V27.5998C26.333 27.0846 26.7511 26.6665 27.2663 26.6665H73.933C74.4482 26.6665 74.8663 27.0846 74.8663 27.5998V57.4665C74.8663 57.9817 74.4482 58.3998 73.933 58.3998ZM28.1997 56.5332H72.9997V28.5332H28.1997V56.5332Z" fill="white"/>
<path d="M62.7327 77.0673H38.466C36.9223 77.0673 35.666 75.811 35.666 74.2673C35.666 72.7236 36.9223 71.4673 38.466 71.4673H62.7327C64.2764 71.4673 65.5327 72.7236 65.5327 74.2673C65.5327 75.811 64.2764 77.0673 62.7327 77.0673ZM38.466 73.334C37.9517 73.334 37.5327 73.753 37.5327 74.2673C37.5327 74.7816 37.9517 75.2006 38.466 75.2006H62.7327C63.2469 75.2006 63.666 74.7816 63.666 74.2673C63.666 73.753 63.2469 73.334 62.7327 73.334H38.466Z" fill="white"/>
<path d="M60.8661 73.3333H40.3327C39.8175 73.3333 39.3994 72.9152 39.3994 72.4C39.3994 71.8848 39.8175 71.4667 40.3327 71.4667C43.4296 71.4667 44.9994 69.2687 44.9994 64.9333C44.9994 64.4181 45.4176 64 45.9328 64H55.2661C55.7813 64 56.1994 64.4181 56.1994 64.9333C56.1994 69.2687 57.7693 71.4667 60.8661 71.4667C61.3813 71.4667 61.7994 71.8848 61.7994 72.4C61.7994 72.9152 61.3813 73.3333 60.8661 73.3333ZM44.879 71.4667H56.3208C55.1709 70.1936 54.4942 68.298 54.3589 65.8667H46.8409C46.7046 68.298 46.0289 70.1936 44.879 71.4667Z" fill="white"/>
</g>
<defs>
<clipPath id="clip0_1_725">
<rect width="56" height="56" fill="white" transform="translate(22.5996 22)"/>
</clipPath>
</defs>
</svg>
