<svg width="101" height="100" viewBox="0 0 101 100" fill="none" xmlns="http://www.w3.org/2000/svg">
<path d="M68.5752 39.661V37.75H66.8252V39.5H65.0752V42.125C65.0752 43.5722 66.2529 44.75 67.7002 44.75C68.1832 44.75 68.5752 45.1429 68.5752 45.625V46.5H67.7002C67.2172 46.5 66.8252 46.1071 66.8252 45.625V44.75H65.0752V45.625C65.0752 46.7642 65.8093 47.7268 66.8252 48.089V50H68.5752V48.25H70.3252V45.625C70.3252 44.1778 69.1474 43 67.7002 43C67.2172 43 66.8252 42.6071 66.8252 42.125V41.25H67.7002C68.1832 41.25 68.5752 41.6429 68.5752 42.125V43H70.3252V42.125C70.3252 40.9857 69.5911 40.0233 68.5752 39.661Z" fill="white"/>
<path d="M77.3252 43.875C77.3252 38.5681 73.0071 34.25 67.7002 34.25C62.3933 34.25 58.0752 38.5681 58.0752 43.875C58.0752 45.7746 58.6256 47.5841 59.6423 49.1346C57.3673 49.1644 55.2227 49.7384 53.3309 50.7341C52.6292 49.5196 51.6728 48.4722 50.4986 47.69C49.3689 46.9366 48.0608 46.437 46.7151 46.2445L43.0322 45.7178L42.5229 43.6834C44.0236 42.7445 45.1401 41.257 45.5951 39.5009H45.8252C47.7554 39.5009 49.3252 37.9311 49.3252 36.0009C49.3252 35.1731 49.0242 34.4206 48.5412 33.8212L49.1712 31.4719C49.2736 31.0641 49.3252 30.6459 49.3252 30.2268C49.3252 28.0795 47.9689 26.144 45.9521 25.4107L40.1963 23.3178C39.3878 23.0238 38.5434 22.875 37.6851 22.875C35.3847 22.875 33.1876 23.9731 31.8086 25.8132L31.3641 26.4047C29.6526 26.6305 28.3252 28.1014 28.3252 29.875C28.3252 31.2829 28.8196 33.0136 29.0873 33.8457C28.6174 34.4416 28.3252 35.1836 28.3252 36C28.3252 37.9303 29.8949 39.5 31.8252 39.5H32.0553C32.5094 41.2561 33.6268 42.7436 35.1274 43.6825L34.6182 45.7169L30.9353 46.2436C29.5896 46.4361 28.2814 46.9366 27.1518 47.6891C24.5994 49.3901 23.0752 52.2382 23.0752 55.306V71H48.2594C50.7829 74.6943 55.0249 77.125 59.8252 77.125C67.5444 77.125 73.8252 70.8442 73.8252 63.125C73.8252 59.2855 72.2703 55.8048 69.7591 53.2725C74.0789 52.3266 77.3252 48.4749 77.3252 43.875ZM56.4494 69.25C55.9393 67.7616 55.5692 66.0116 55.4826 64H64.1687C64.0812 66.0081 63.7084 67.7599 63.1957 69.25H56.4494ZM62.4878 71C61.5533 72.9871 60.4674 74.3329 59.8234 75.0233C59.1768 74.3337 58.0883 72.9915 57.1538 71H62.4878ZM57.1626 55.25C58.0971 53.2638 59.1829 51.918 59.8269 51.2267C60.4736 51.9154 61.5621 53.2585 62.4966 55.25H57.1626ZM63.2009 57C63.7111 58.4884 64.0812 60.2384 64.1678 62.25H55.4817C55.5692 60.2419 55.9419 58.4901 56.4556 57H63.2009ZM55.2306 55.25H50.4557C52.2582 53.108 54.7799 51.5986 57.6456 51.0806C56.8808 52.058 55.9822 53.4457 55.2306 55.25ZM49.2324 57H54.5962C54.1307 58.5199 53.8096 60.2734 53.7326 62.25H47.6198C47.7546 60.3469 48.3233 58.5654 49.2324 57ZM53.7317 64C53.8096 65.9766 54.1298 67.7301 54.5953 69.25H49.2316C48.3224 67.6846 47.7537 65.9031 47.6181 64H53.7317ZM65.9187 64H72.0314C71.8958 65.9031 71.3271 67.6846 70.4179 69.25H65.0542C65.5197 67.7301 65.8408 65.9766 65.9187 64ZM65.9187 62.25C65.8408 60.2734 65.5206 58.5199 65.0551 57H70.4188C71.3279 58.5654 71.8967 60.3469 72.0323 62.25H65.9187ZM64.4198 55.25C63.6682 53.4457 62.7696 52.058 62.0048 51.0806C64.8704 51.5986 67.3913 53.108 69.1947 55.25H64.4198ZM38.8252 50.9783L39.9531 51.5426L39.2321 52.625H38.4192L37.6973 51.5426L38.8252 50.9783ZM36.1197 52.331L36.9851 53.6295L36.0978 56.2921C35.5238 55.2579 35.0443 54.1781 34.6637 53.0599L36.1197 52.331ZM38.5811 54.375H39.0702L40.3468 58.204C39.8761 58.8629 39.3791 59.5051 38.8252 60.1097C38.2713 59.5051 37.7743 58.8629 37.3036 58.204L38.5811 54.375ZM41.5534 56.2921L40.6662 53.6295L41.5316 52.331L42.9884 53.059C42.6069 54.1781 42.1274 55.2579 41.5534 56.2921ZM44.0279 47.627C43.9623 48.8949 43.7803 50.1391 43.4846 51.3519L40.3013 49.7603L42.6332 47.4284L44.0279 47.627ZM45.8252 37.75V34.25C46.7903 34.25 47.5752 35.0349 47.5752 36C47.5752 36.9651 46.7903 37.75 45.8252 37.75ZM30.0752 36C30.0752 35.0349 30.8601 34.25 31.8252 34.25H31.8576C31.8444 34.4259 31.8252 34.6009 31.8252 34.7794V37.75C30.8601 37.75 30.0752 36.9651 30.0752 36ZM32.2277 32.5H31.8252C31.3851 32.5 30.9686 32.591 30.5801 32.7397C30.3491 31.9348 30.0752 30.7929 30.0752 29.875C30.0752 28.9099 30.8601 28.125 31.8252 28.125H32.2627L33.2086 26.8633C34.2594 25.4615 35.9333 24.625 37.6851 24.625C38.3387 24.625 38.9818 24.7379 39.5978 24.9619L45.3536 27.0549C46.6818 27.5379 47.5752 28.8128 47.5752 30.2268C47.5752 30.5024 47.5411 30.7771 47.4781 31.0309L47.0239 32.7249C46.6486 32.5866 46.2478 32.5 45.8252 32.5H44.9502C40.8963 32.5 35.8607 29.1802 35.8108 29.1461L35.3243 28.8232L34.8396 29.147C33.6102 29.9669 32.7107 31.1499 32.2277 32.5ZM33.5752 37.75V34.7794C33.5752 33.284 34.2358 31.884 35.3663 30.9355C36.7339 31.7711 40.5061 33.8912 44.0752 34.2089V37.75C44.0752 40.6454 41.7206 43 38.8252 43C35.9298 43 33.5752 40.6454 33.5752 37.75ZM38.8252 44.75C39.5497 44.75 40.2497 44.6389 40.9068 44.4341L41.3557 46.2323L38.8252 48.7628L36.2947 46.2323L36.7436 44.4341C37.4007 44.6389 38.1007 44.75 38.8252 44.75ZM35.0163 47.4284L37.3482 49.7603L34.1649 51.3519C33.8701 50.1391 33.6872 48.8949 33.6216 47.627L35.0163 47.4284ZM30.0752 69.25V56.125H28.3252V69.25H24.8252V55.306C24.8252 52.8245 26.0581 50.5206 28.1231 49.1442C29.0366 48.5352 30.0953 48.1301 31.1838 47.9744L31.8646 47.8772C32.1769 53.2113 34.4064 58.1917 38.2066 61.9928L38.8252 62.6123L39.4438 61.9936C43.2439 58.1926 45.4734 53.2121 45.7858 47.8781L46.4666 47.9753C47.5551 48.131 48.6138 48.5361 49.5273 49.1451C50.4881 49.7856 51.2677 50.6457 51.8373 51.6432C48.2087 54.1755 45.8252 58.3746 45.8252 63.125C45.8252 65.323 46.3484 67.3968 47.2558 69.25H30.0752ZM50.4557 71H55.2306C55.9822 72.8042 56.8808 74.192 57.6456 75.1694C54.7799 74.6514 52.2582 73.142 50.4557 71ZM62.0048 75.1694C62.7696 74.192 63.6682 72.8042 64.4198 71H69.1947C67.3922 73.142 64.8704 74.6514 62.0048 75.1694ZM67.9391 51.7378C66.2136 50.504 64.1993 49.6596 62.0162 49.314C60.6057 47.8414 59.8252 45.9225 59.8252 43.875C59.8252 39.5333 63.3576 36 67.7002 36C72.0428 36 75.5752 39.5333 75.5752 43.875C75.5752 48.1362 72.1706 51.61 67.9391 51.7378Z" fill="white"/>
</svg>
