<svg width="38" height="38" viewBox="0 0 38 38" fill="none" xmlns="http://www.w3.org/2000/svg">
<circle cx="19" cy="19" r="19" fill="#5CB3FF"/>
<path d="M19 24L20 22V16.858C21.721 16.411 23 14.858 23 13C23 10.794 21.206 9 19 9C16.794 9 15 10.794 15 13C15 14.858 16.279 16.411 18 16.858V22L19 24ZM17 13C17 11.897 17.897 11 19 11C20.103 11 21 11.897 21 13C21 14.103 20.103 15 19 15C17.897 15 17 14.103 17 13Z" fill="white"/>
<path d="M23.267 17.563L22.734 19.491C25.325 20.207 27 21.584 27 23C27 24.892 23.715 27 19 27C14.285 27 11 24.892 11 23C11 21.584 12.675 20.207 15.267 19.49L14.734 17.562C11.197 18.54 9 20.623 9 23C9 26.364 13.393 29 19 29C24.607 29 29 26.364 29 23C29 20.623 26.803 18.54 23.267 17.563Z" fill="white"/>
</svg>
