<svg width="38" height="38" viewBox="0 0 38 38" fill="none" xmlns="http://www.w3.org/2000/svg">
<circle cx="19" cy="19" r="19" fill="#5CB3FF"/>
<path d="M21.7304 22.7124C21.4741 22.1843 21.1429 21.7999 20.571 22.0343L19.4429 22.453C18.5398 22.8718 18.0898 22.453 17.6366 21.8218L15.6054 17.203C15.3491 16.6749 15.4835 16.178 16.0554 15.9437L17.6335 15.3124C18.2054 15.0749 18.1148 14.5812 17.8585 14.053L16.5116 11.5343C16.2554 11.0062 15.7304 10.878 15.1585 11.1124C14.0116 11.5843 13.0648 12.3249 12.4523 13.4218C11.7023 14.7624 12.0773 16.628 12.2273 17.4124C12.3773 18.1968 12.9023 19.5718 13.5804 20.9812C14.2585 22.3937 14.8523 23.503 15.3866 24.1312C15.9179 24.7593 17.1929 26.478 18.771 26.8624C20.0648 27.1749 21.4616 26.9124 22.6054 26.4405C23.1773 26.2062 23.1804 25.7093 22.9241 25.178L21.7304 22.7124ZM20.9273 18.9999C21.4366 18.9999 21.8523 18.5874 21.8523 18.0749C21.8523 17.5655 21.4398 17.1499 20.9273 17.1499C20.4179 17.1499 20.0023 17.5624 20.0023 18.0749C20.0023 18.5843 20.4179 18.9999 20.9273 18.9999ZM23.3898 17.1499C22.8804 17.1499 22.4648 17.5624 22.4648 18.0749C22.4648 18.5843 22.8773 18.9999 23.3898 18.9999C23.8991 18.9999 24.3148 18.5874 24.3148 18.0749C24.3116 17.5655 23.8991 17.1499 23.3898 17.1499ZM25.8523 17.1499C25.3429 17.1499 24.9273 17.5624 24.9273 18.0749C24.9273 18.5843 25.3398 18.9999 25.8523 18.9999C26.3616 18.9999 26.7773 18.5874 26.7773 18.0749C26.7741 17.5655 26.3616 17.1499 25.8523 17.1499Z" fill="white"/>
</svg>
